<svg xmlns="http://www.w3.org/2000/svg" viewBox="0 0 41.99 41.99"><defs><style>.cls-1,.cls-2,.cls-4{fill:none;stroke:#fff;}.cls-1,.cls-2{stroke-miterlimit:10;}.cls-1{stroke-width:2px;}.cls-3{font-size:4.56px;font-family:DrunkTank-Regular, Drunk Tank;}.cls-3,.cls-5{fill:#fff;}.cls-4{stroke-linejoin:round;}.cls-5{font-size:4.2px;font-family:Digital-Display, Digital Display;}</style></defs><g id="Layer_2" data-name="Layer 2"><g id="Layer_1-2" data-name="Layer 1"><circle class="cls-1" cx="21" cy="21" r="20"/><path class="cls-2" d="M16.54,33.3H9a.84.84,0,0,1-.88-.91l1.07-7a.88.88,0,0,1,.88-.69h5.39a.86.86,0,0,1,.88.69l1.07,7A.83.83,0,0,1,16.54,33.3Z"/><ellipse class="cls-2" cx="12.77" cy="23.16" rx="1.56" ry="1.41"/><text class="cls-3" transform="translate(10.14 30.48) scale(1.17 1)">KG</text><circle class="cls-2" cx="29.45" cy="24.89" r="3.13"/><path class="cls-2" d="M26.65,23.53c-.11.24-1.94,4.83-.36,7.89"/><polygon class="cls-4" points="26.7 30.92 25.83 31.36 26.6 33.23 27.47 32.78 26.7 30.92"/><path class="cls-2" d="M32.48,26.45a3,3,0,0,1-6,0"/><circle class="cls-2" cx="21.22" cy="15.71" r="5.04"/><line class="cls-2" x1="21.18" y1="8.64" x2="21.18" y2="10.67"/><line class="cls-2" x1="20.22" y1="9.12" x2="22.17" y2="9.12"/><line class="cls-2" x1="15.94" y1="11.18" x2="17.34" y2="12.46"/><line class="cls-2" x1="15.73" y1="12.07" x2="16.81" y2="10.9"/><text class="cls-5" transform="translate(17.18 17) scale(0.88 1)">06:34</text></g></g></svg>