<svg xmlns="http://www.w3.org/2000/svg" viewBox="0 0 41.99 41.99"><defs><style>.cls-1,.cls-2,.cls-4{fill:none;stroke:#fff;}.cls-1,.cls-2{stroke-miterlimit:10;}.cls-1{stroke-width:2px;}.cls-3{font-size:4.56px;font-family:DrunkTank-Regular, Drunk Tank;}.cls-3,.cls-5{fill:#fff;}.cls-4{stroke-linejoin:round;}.cls-5{font-size:5.25px;font-family:Digital-Display, Digital Display;}</style></defs><g id="Layer_2" data-name="Layer 2"><g id="Layer_1-2" data-name="Layer 1"><circle class="cls-1" cx="21" cy="21" r="20"/><path class="cls-2" d="M17.31,33.25H9.78a.84.84,0,0,1-.88-.91l1.07-7a.87.87,0,0,1,.88-.69h5.39a.87.87,0,0,1,.88.69l1.07,7A.83.83,0,0,1,17.31,33.25Z"/><ellipse class="cls-2" cx="13.55" cy="23.11" rx="1.56" ry="1.41"/><text class="cls-3" transform="translate(10.92 30.43) scale(1.17 1)">KG</text><circle class="cls-2" cx="29.45" cy="23.33" r="3.13"/><path class="cls-2" d="M26.42,23.55c-.11.24-1.94,4.83-.36,7.89"/><polygon class="cls-4" points="26.47 30.94 25.6 31.38 26.37 33.25 27.24 32.8 26.47 30.94"/><path class="cls-2" d="M32.48,24.89a3,3,0,0,1-6.06,0"/><path class="cls-2" d="M32.49,23.55c.11.24,1.94,4.83.36,7.89"/><polygon class="cls-4" points="32.44 30.94 33.31 31.38 32.54 33.25 31.67 32.8 32.44 30.94"/><circle class="cls-2" cx="21.22" cy="15.71" r="5.04"/><line class="cls-2" x1="21.18" y1="8.64" x2="21.18" y2="10.67"/><line class="cls-2" x1="20.22" y1="9.12" x2="22.17" y2="9.12"/><line class="cls-2" x1="15.94" y1="11.18" x2="17.34" y2="12.46"/><line class="cls-2" x1="15.73" y1="12.07" x2="16.81" y2="10.9"/><text class="cls-5" transform="translate(17.86 17.38) scale(0.59 1)">06:34</text></g></g></svg>