<svg xmlns="http://www.w3.org/2000/svg" viewBox="0 0 41.99 100.1"><defs><style>.cls-1,.cls-3,.cls-5{fill:none;stroke:#fff;}.cls-1,.cls-5{stroke-miterlimit:10;}.cls-2{font-size:5.34px;font-family:DrunkTank-Regular, Drunk Tank;}.cls-2,.cls-4,.cls-6{fill:#fff;}.cls-3{stroke-linejoin:round;}.cls-4{font-size:6.02px;font-family:Digital-Display, Digital Display;}.cls-5{stroke-width:2px;}.cls-6{font-size:6px;font-family:TacticoRegular, Tactico;}.cls-7{letter-spacing:-0.05em;}</style></defs><g id="Layer_2" data-name="Layer 2"><g id="Layer_1-2" data-name="Layer 1"><path class="cls-1" d="M24.4,84.17h-9a1,1,0,0,1-1.05-1.06l1.29-8.22a1,1,0,0,1,1-.8h6.44a1,1,0,0,1,1.05.8l1.28,8.22A1,1,0,0,1,24.4,84.17Z"/><ellipse class="cls-1" cx="19.9" cy="72.3" rx="1.87" ry="1.65"/><text class="cls-2" transform="translate(16.76 80.87) scale(1.2 1)">KG</text><ellipse class="cls-1" cx="27.69" cy="88.29" rx="4.16" ry="3.57"/><path class="cls-1" d="M23.67,88.54c-.15.27-2.58,5.5-.48,9"/><polygon class="cls-3" points="23.73 96.96 22.58 97.47 23.6 99.6 24.75 99.09 23.73 96.96"/><path class="cls-1" d="M31.71,90.07c0,1.82-1.8,3.3-4,3.3s-4-1.48-4-3.3"/><path class="cls-1" d="M31.73,88.54c.14.27,2.58,5.5.47,9"/><polygon class="cls-3" points="31.66 96.96 32.81 97.47 31.8 99.6 30.64 99.09 31.66 96.96"/><ellipse class="cls-1" cx="11.6" cy="92.27" rx="5.94" ry="5.78"/><line class="cls-1" x1="11.55" y1="84.17" x2="11.55" y2="86.49"/><line class="cls-1" x1="10.42" y1="84.72" x2="12.72" y2="84.72"/><line class="cls-1" x1="5.39" y1="87.09" x2="7.03" y2="88.55"/><line class="cls-1" x1="5.14" y1="88.11" x2="6.41" y2="86.76"/><text class="cls-4" transform="translate(7.64 94.18) scale(0.6 1)">06:34</text><circle class="cls-5" cx="21" cy="21" r="20"/><text class="cls-6" transform="translate(3.83 22.85)">Mu<tspan class="cls-7" x="6.28" y="0">l</tspan><tspan x="8.06" y="0">ti - dicipline</tspan></text><text class="cls-6" transform="translate(7.48 14.87)">cross modal</text><text class="cls-6" transform="translate(12.2 30.91)">training</text></g></g></svg>