<svg xmlns="http://www.w3.org/2000/svg" viewBox="0 0 41.99 41.99"><defs><style>.cls-1,.cls-2{fill:none;stroke:#fff;stroke-miterlimit:10;}.cls-1{stroke-width:2px;}</style></defs><g id="Layer_2" data-name="Layer 2"><g id="Layer_1-2" data-name="Layer 1"><circle class="cls-1" cx="21" cy="21" r="20"/><ellipse class="cls-2" cx="31.58" cy="15.94" rx="1.47" ry="1.41"/><line class="cls-2" x1="25.33" y1="15.94" x2="28.63" y2="15.94"/><line class="cls-2" x1="34.53" y1="15.94" x2="37.83" y2="15.94"/><line class="cls-2" x1="36" y1="20.19" x2="33.66" y2="17.95"/><line class="cls-2" x1="29.49" y1="13.94" x2="27.16" y2="11.69"/><line class="cls-2" x1="31.58" y1="9.93" x2="31.58" y2="13.11"/><line class="cls-2" x1="31.58" y1="18.78" x2="31.58" y2="21.95"/><line class="cls-2" x1="37.83" y1="15.94" x2="34.53" y2="15.94"/><line class="cls-2" x1="28.63" y1="15.94" x2="25.33" y2="15.94"/><line class="cls-2" x1="36" y1="11.69" x2="33.66" y2="13.94"/><line class="cls-2" x1="29.49" y1="17.95" x2="27.16" y2="20.19"/><line class="cls-2" x1="17.01" y1="33.88" x2="25.97" y2="8.7"/><line class="cls-2" x1="4.55" y1="18.74" x2="11.4" y2="16.3"/><line class="cls-2" x1="17.92" y1="18.74" x2="11.06" y2="16.3"/><line class="cls-2" x1="6.83" y1="18.21" x2="6.83" y2="26.28"/><line class="cls-2" x1="15.67" y1="18.21" x2="15.67" y2="26.28"/><line class="cls-2" x1="6.86" y1="25.84" x2="15.6" y2="25.84"/><rect class="cls-2" x="10.04" y="22.68" width="2.37" height="2.86"/><polygon class="cls-2" points="27.74 26.59 26.55 24.52 25.35 22.45 24.16 24.52 22.96 26.59 24 26.59 22.91 28.48 25.3 28.48 27.69 28.48 26.6 26.59 27.74 26.59"/><rect class="cls-2" x="25.18" y="28.77" width="0.3" height="2.64"/></g></g></svg>