<svg xmlns="http://www.w3.org/2000/svg" viewBox="0 0 438.41 111.34"><defs><style>.cls-1{fill:#810;}</style></defs><g id="Layer_2" data-name="Layer 2"><g id="Layer_1-2" data-name="Layer 1"><path d="M37.34,47.55l1.41-12.14H50.48c.2.09.47-.15.8-.72a5.44,5.44,0,0,0,.69-2c0-.13.13-.71.32-1.73s.42-2.3.71-3.86.6-3.31,1-5.26.72-3.91,1.09-5.9q1.3-7,3-15.94H68.66L62.77,36.36q-.26,1.48-.63,3.42a37.1,37.1,0,0,1-.89,3.63A14.51,14.51,0,0,1,60,46.29c-.46.79-1,1.19-1.55,1.19Z"/><path d="M71.82,47.48,94.8,0h9.39a1.86,1.86,0,0,1,1.34.78,7.18,7.18,0,0,1,1.08,1.73c.24.59.47,1.2.68,1.83a17.53,17.53,0,0,1,.54,1.9c0,.18.13.91.3,2.17s.39,2.87.64,4.82.52,4.15.82,6.61.6,5,.93,7.49q1.11,9,2.49,20.15H100.24L98.9,38.73l-10.65-.27c1-2.13,1.9-4.05,2.71-5.77q.5-1.08,1-2.1c.34-.68.63-1.29.9-1.83l.87-1.83h3.69L96.07,17,81.32,47.48Z"/><path d="M120.46,47.48,127.5,7l3.28,25-2.31,15.53ZM139.34,0a1.36,1.36,0,0,1,.89.37,3.71,3.71,0,0,1,.81,1,7.45,7.45,0,0,1,.61,1.39A9.07,9.07,0,0,1,142,4.27l2.83,21.84L158,0h13.82l-8,47.48h-12L154.2,32l-7.71,15.53H134.83L128.8,0Z"/><path d="M181.42.07l33-.07-2,11.87h-21L187.72,34a3.37,3.37,0,0,0,.13,1.32c.13.53.3.78.5.78h1.19l2.52,0,3.37-.07c1.24,0,2.49,0,3.76,0s2.49,0,3.69,0,2.24,0,3.14,0,1.62,0,2.14,0,.75,0,.67.1L207,47.48H179.45a2.13,2.13,0,0,1-1-.27,4.3,4.3,0,0,1-1-.75,6,6,0,0,1-.91-1.08,6.09,6.09,0,0,1-.67-1.29,31.15,31.15,0,0,1-.94-3.32,9,9,0,0,1-.11-3.53ZM193.16,17.7h16.72l-2.16,10.58H191.07Z"/><path d="M253.75,37.85a17.67,17.67,0,0,1-.82,3.32,19.11,19.11,0,0,1-1.4,3.09,10.75,10.75,0,0,1-1.71,2.3,2.6,2.6,0,0,1-1.77.92H215.46l1.6-9.63h23.21a2.11,2.11,0,0,0,1.63-.92,8.47,8.47,0,0,0,1.27-2.2,10.51,10.51,0,0,0,.5-1.73c.16-.75.31-1.5.43-2.27s.25-1.79.37-2.78H225.41a7.13,7.13,0,0,1-2.56-.48,5.06,5.06,0,0,1-2.1-1.49,5.47,5.47,0,0,1-1.15-2.58,8.08,8.08,0,0,1,.33-3.73l1.86-11.33a13.1,13.1,0,0,1,1.14-4,9.15,9.15,0,0,1,1.82-2.58A6,6,0,0,1,227,.41,6.88,6.88,0,0,1,229.2,0H260l-1.68,10.17-20.56.07a3.87,3.87,0,0,0-2.73.61,4.64,4.64,0,0,0-1.4,2.72l-.82,4.88h19a5.38,5.38,0,0,1,1.79.3A3.31,3.31,0,0,1,255,19.84a5.06,5.06,0,0,1,.9,2,8.56,8.56,0,0,1,0,3.05Z"/><path class="cls-1" d="M289.23,0h11.62l-6.37,36.22H315.3l-1.41,11.26H287.7a3.47,3.47,0,0,1-2.34-1.12,12.35,12.35,0,0,1-2.05-2.47,4.71,4.71,0,0,1-.47-1.67q-.16-1.19-.24-2.61t0-2.88a18.49,18.49,0,0,1,.18-2.41Z"/><path class="cls-1" d="M329.49.07l33-.07-2,11.87h-21L335.78,34a3.62,3.62,0,0,0,.13,1.33q.21.78.51.78h1.19c.67,0,1.51,0,2.51,0l3.37-.07c1.24,0,2.5,0,3.76,0s2.5,0,3.69,0,2.24,0,3.15,0,1.62,0,2.14,0,.74,0,.67.1L355,47.48H327.52a2.1,2.1,0,0,1-1-.27,4.56,4.56,0,0,1-1-.75,6.42,6.42,0,0,1-.91-1.08,6.59,6.59,0,0,1-.67-1.29,29,29,0,0,1-.93-3.32,9,9,0,0,1-.11-3.53ZM341.22,17.7h16.72l-2.16,10.59H339.13Z"/><path class="cls-1" d="M370.31.07,403.26,0l-2,11.87h-21L376.6,34a3.41,3.41,0,0,0,.13,1.33c.14.52.3.78.5.78h1.19c.67,0,1.51,0,2.52,0l3.37-.07c1.24,0,2.49,0,3.76,0s2.49,0,3.69,0,2.24,0,3.14,0,1.62,0,2.15,0,.74,0,.67.1l-1.87,11.46H368.33a2.13,2.13,0,0,1-1-.27,4.51,4.51,0,0,1-1-.75,6,6,0,0,1-.91-1.08,6.09,6.09,0,0,1-.67-1.29,29,29,0,0,1-.93-3.32,9,9,0,0,1-.12-3.53ZM382,17.7h16.72L396.6,28.29H380Z"/><path d="M0,111.29,5.43,72.05H25.49q.44,0,.78.87a11.23,11.23,0,0,1,.57,2.1,22.73,22.73,0,0,1,.32,2.58,14.48,14.48,0,0,1,0,2.3c0,.33-.1.79-.19,1.37s-.2,1.24-.32,2-.24,1.55-.38,2.41-.28,1.72-.42,2.58q-.46,3-1.07,6.5a3.22,3.22,0,0,1-.25,1.09,8.82,8.82,0,0,1-.59,1.24,6.41,6.41,0,0,1-.71,1q-.37.45-.63.45H21.1l-2.16,0-2.42,0H12.11l1.3-8.3h4.73c.21,0,.39-.16.52-.48A5.88,5.88,0,0,0,19,88.56c.1-.47.2-1,.28-1.6s.17-1.21.27-1.85a7.1,7.1,0,0,0,0-3c-.21-.82-.52-1.33-.92-1.51a2.62,2.62,0,0,0-.65-.09c-.34,0-.72,0-1.17,0H12.48L7.86,111.29Z"/><path d="M34.4,72.11l22.14-.06-1.33,9.81H41.08l-2.45,18.27a3.14,3.14,0,0,0,.09,1.1c.09.43.2.64.33.64h.8l1.69,0,2.27,0q1.24,0,2.52,0c.85,0,1.68,0,2.48,0l2.11,0q.91,0,1.44,0c.35,0,.5,0,.45.08l-1.25,9.48H33.07a1.25,1.25,0,0,1-.65-.23,3.15,3.15,0,0,1-.68-.61,6,6,0,0,1-.62-.9,6.36,6.36,0,0,1-.45-1.07c-.23-.82-.44-1.73-.62-2.74a9,9,0,0,1-.08-2.92Zm7.88,14.57H53.51l-1.45,8.74H40.88Z"/><path d="M57.24,111.29l5.63-39.24H81.78a.93.93,0,0,1,.74.45,4.14,4.14,0,0,1,.6,1.23,12.16,12.16,0,0,1,.44,1.82c.12.7.21,1.42.28,2.16a10.17,10.17,0,0,1,0,1.54q-.06,1-.18,2.16c-.09.79-.19,1.63-.32,2.52L83,86.62q-.45,3.09-1,6.67l-.9,3.2a3.18,3.18,0,0,1-.56,1.12,7.13,7.13,0,0,0-.64.9.79.79,0,0,1-.49.33,3.5,3.5,0,0,0-.66.23s0,.23,0,.59.13.82.25,1.4.26,1.23.44,2,.35,1.47.53,2.21c.44,1.8,1,3.81,1.55,6.06H73.38L70.5,98.9H68.9l1.25-9.36,5.23-.17,1.1-7.45H69.55l-4.1,29.37Z"/><path d="M112.66,103.33a17.49,17.49,0,0,1-.55,2.74,16.79,16.79,0,0,1-.94,2.55,9.36,9.36,0,0,1-1.15,1.91,1.68,1.68,0,0,1-1.19.76H86.94l1.07-8H103.6a1.39,1.39,0,0,0,1.1-.76,7.51,7.51,0,0,0,.85-1.82,9.5,9.5,0,0,0,.34-1.43c.11-.62.2-1.24.29-1.88s.16-1.47.25-2.3H93.62a4,4,0,0,1-1.72-.39,3.45,3.45,0,0,1-1.41-1.23,5.26,5.26,0,0,1-.78-2.13,8.28,8.28,0,0,1,.23-3.08L91.19,79A12.4,12.4,0,0,1,92,75.67a7.86,7.86,0,0,1,1.23-2.13,4,4,0,0,1,1.48-1.15,3.74,3.74,0,0,1,1.51-.34h20.66l-1.12,8.41-13.81.05a2.24,2.24,0,0,0-1.84.51,4.16,4.16,0,0,0-.94,2.24l-.55,4h12.76a2.9,2.9,0,0,1,1.2.25,2.28,2.28,0,0,1,1,.9,4.62,4.62,0,0,1,.6,1.65,8.38,8.38,0,0,1,0,2.52Z"/><path d="M121.14,111.29A1.51,1.51,0,0,1,120,111a2.73,2.73,0,0,1-.73-1.12,6,6,0,0,1-.35-1.68,12.13,12.13,0,0,1,0-2.08q.9-7.72,1.65-14.07c.22-1.79.43-3.56.64-5.32s.4-3.34.58-4.76.32-2.63.43-3.62.2-1.61.25-1.88a10.15,10.15,0,0,1,1-3.36c.41-.67.83-1,1.26-1h17.74a1,1,0,0,1,.81.51,3.54,3.54,0,0,1,.51,1.34,8.22,8.22,0,0,1,.15,1.93,11.41,11.41,0,0,1-.27,2.27L139,111.29Zm8-29.82q-.59,4.65-1,8.46c-.13,1.09-.26,2.15-.4,3.2L127.33,96c-.11.88-.2,1.62-.28,2.22s-.12,1-.13,1.12a3.56,3.56,0,0,0,.11,1.9c.19.42.4.62.64.62h5.63l2.85-20.4Z"/><path d="M146.41,111.29l4.42-34.87L154,89.88l-2.78,21.46Zm17.41-19.68,3.08-19.56h6.4L168,111.34h-7.53l-8.91-39.29h6.25c.3-.07.71.26,1.22,1a10.2,10.2,0,0,1,1.29,3.19Z"/><path d="M175.38,111.29l15.43-39.24h6.31c.3,0,.6.22.9.65a5.75,5.75,0,0,1,.72,1.42c.17.49.32,1,.47,1.52s.26,1,.36,1.57c0,.15.08.75.2,1.79s.26,2.38.42,4,.36,3.43.56,5.47.4,4.1.62,6.19q.75,7.39,1.68,16.65h-8.58l-.91-7.23-7.15-.23q1-2.62,1.83-4.76.31-.9.66-1.74c.22-.56.42-1.07.6-1.51s.37-1,.59-1.52h2.47l-.9-8.18-9.9,25.17Z"/><path d="M212.5,72.05h7.81L216,102h14l-1,9.31H211.48a2.2,2.2,0,0,1-1.58-.93,10.55,10.55,0,0,1-1.37-2,4.42,4.42,0,0,1-.32-1.38c-.07-.65-.13-1.37-.16-2.16s0-1.57,0-2.38a17.24,17.24,0,0,1,.12-2Z"/><path d="M254.16,72.05c4,0,21.76,0,21.76,0-.1.6-.18,1.16-.26,1.68s-1.06,7.4-1.36,9.53h-7.23c-.22,1.57-.41,3-.59,4.32s-.38,2.8-.61,4.48-.47,3.4-.7,5.16q-.82,6.16-1.9,14.07H256l3.73-28h-7.23Z"/><path d="M278.1,111.29l5.63-39.24h18.91a.93.93,0,0,1,.74.45,4.14,4.14,0,0,1,.6,1.23,12.16,12.16,0,0,1,.44,1.82c.12.7.21,1.42.28,2.16a11.7,11.7,0,0,1,0,1.54q-.06,1-.18,2.16c-.09.79-.19,1.63-.32,2.52l-.36,2.69q-.45,3.09-1.05,6.67l-.9,3.2a3.36,3.36,0,0,1-.56,1.12,7.13,7.13,0,0,0-.64.9.79.79,0,0,1-.49.33,3.5,3.5,0,0,0-.66.23s0,.23,0,.59.13.82.25,1.4.26,1.23.43,2l.54,2.21c.44,1.8.95,3.81,1.55,6.06h-8.05L291.36,98.9h-1.6L291,89.54l5.23-.17,1.1-7.45h-6.93l-4.1,29.37Z"/><path d="M307.82,111.29l15.44-39.24h6.3c.3,0,.6.22.9.65a5.77,5.77,0,0,1,.73,1.42c.17.49.32,1,.46,1.52s.26,1,.36,1.57c0,.15.09.75.2,1.79s.26,2.38.43,4,.35,3.43.55,5.47.41,4.1.63,6.19q.75,7.39,1.67,16.65h-8.58l-.9-7.23-7.15-.23q1-2.62,1.82-4.76.33-.9.66-1.74l.61-1.51.58-1.52H325l-.9-8.18-9.91,25.17Z"/><path d="M340.47,111.29l5.13-39.24c1.38,0,2.63.06,3.73.06h3.42q.33,0,.33-.06c-.32,2.21-.6,4.23-.85,6.08s-.53,4-.85,6.28-.64,4.74-1,7.2q-1.2,8.64-2.67,19.68Z"/><path d="M355.46,111.29l4.43-34.87,3.2,13.46-2.78,21.46Zm17.41-19.68L376,72.05h6.4l-5.3,39.29h-7.53l-8.91-39.29h6.26c.3-.07.7.26,1.21,1a10.2,10.2,0,0,1,1.29,3.19Z"/><path d="M389,72.11l22.14-.06-1.33,9.81H395.64l-2.46,18.27a3.71,3.71,0,0,0,.09,1.1c.09.43.21.64.34.64h.8l1.69,0,2.26,0c.84,0,1.68,0,2.53,0s1.68,0,2.48,0l2.11,0q.91,0,1.44,0c.35,0,.5,0,.45.08l-1.25,9.48H387.63a1.22,1.22,0,0,1-.65-.23,3.43,3.43,0,0,1-.69-.61,5.91,5.91,0,0,1-.61-.9,5,5,0,0,1-.45-1.07c-.24-.82-.44-1.73-.63-2.74a9,9,0,0,1-.07-2.92Zm7.88,14.57h11.23l-1.45,8.74H395.44Z"/><path d="M411.8,111.29l5.63-39.24h18.91a1,1,0,0,1,.74.45,4.69,4.69,0,0,1,.6,1.23,13.53,13.53,0,0,1,.44,1.82c.11.7.21,1.42.27,2.16a9.94,9.94,0,0,1,0,1.54c0,.66-.11,1.38-.19,2.16s-.19,1.63-.31,2.52-.25,1.8-.36,2.69q-.45,3.09-1,6.67l-.91,3.2a3.18,3.18,0,0,1-.56,1.12,10,10,0,0,0-.64.9.75.75,0,0,1-.48.33,3.34,3.34,0,0,0-.67.23s0,.23,0,.59.14.82.25,1.4.27,1.23.44,2l.54,2.21c.43,1.8.95,3.81,1.55,6.06h-8.06L425.06,98.9h-1.6l1.25-9.36,5.23-.17,1.1-7.45h-6.93L420,111.29Z"/></g></g></svg>